<?xml version="1.0" encoding="UTF-8" standalone="no"?>
<!-- Created with Inkscape (http://www.inkscape.org/) -->

<svg
   width="48"
   height="48"
   viewBox="0 0 12.7 12.7"
   version="1.1"
   id="svg5"
   xmlns="http://www.w3.org/2000/svg"
   xmlns:svg="http://www.w3.org/2000/svg">
  <defs
     id="defs2" />
  <g
     id="layer1"
     transform="translate(0.04191653,-0.04072119)">
    <g
       id="g299"
       transform="matrix(1.2977602,0,0,1.2977602,-14.954076,-3.5121242)">
      <path
         fill="#ef9645"
         d="m 12.632464,5.8794965 c -0.09913,0.3699659 0.120319,0.7500661 0.490285,0.849198 l 0.0013,3.634e-4 -1.520295,0.310465 c -0.09913,0.3699651 0.120318,0.7500652 0.490286,0.8491973 l 0.344243,0.092241 -0.590677,0.5595547 c -0.09913,0.369967 0.120317,0.7500687 0.490286,0.8492005 l 0.947022,0.2537525 2.406265,0.9318881 0.972082,-3.6278614 z"
         id="path85"
         style="display:inline;stroke-width:0.277347" />
      <path
         fill="#ffdc5d"
         d="m 16.963808,3.9175249 c -0.262818,0.3261052 -0.185037,0.9134586 0.24519,1.4295713 0.282441,0.3389799 0.758937,0.5441812 0.724215,0.8805835 -0.01346,0.1284725 -0.172432,0.3081172 -0.462832,0.2303047 L 13.223143,5.3199401 c 0,0 -0.535795,-0.1435649 -0.679361,0.3922276 -0.143564,0.5357944 0.392229,0.6793601 0.392229,0.6793601 l 3.116446,0.8350492 c -0.0078,-0.00207 -0.08893,0.2633019 -0.09375,0.2620098 L 12.19449,6.4799687 c 0,0 -0.535794,-0.1435664 -0.679361,0.3922279 -0.143561,0.5357949 0.39223,0.6793597 0.39223,0.6793597 l 3.764756,1.0087633 c 0.0045,0.00123 -0.0608,0.27084 -0.0533,0.2728495 l -3.180476,-0.852205 c 0,0 -0.535792,-0.1435648 -0.679359,0.3922285 -0.143564,0.5357937 0.392231,0.6793591 0.392231,0.6793591 l 3.385681,0.9071911 c 0.03161,0.00847 -0.0045,0.2859152 0.03484,0.2964662 L 13.284967,9.6434717 c 0,0 -0.535795,-0.1435665 -0.67936,0.3922293 -0.143566,0.535792 0.392228,0.679358 0.392228,0.679358 l 4.085428,1.094688 C 18.858615,12.285451 20.683716,11.231732 21.15942,9.4563771 21.502179,8.1771687 21.041991,7.1106349 20.452072,6.4253935 19.951693,5.844252 19.348416,5.5528256 19.163156,5.475906 c 0,0 -0.387393,-0.1391136 -0.684547,-0.5153435 -0.42204,-0.5348821 -0.666025,-0.89629 -0.811369,-1.1146892 -0.07315,-0.1106075 -0.412167,-0.2898957 -0.703433,0.071657 z"
         id="path87"
         style="display:inline;stroke-width:0.277347" />
      <path
         fill="#ef9645"
         d="m 17.801135,6.4205586 c -0.09258,0.060471 -0.174584,0.060036 -0.246395,0.053714 -0.06643,0.5254515 -0.108564,1.2506524 0.265993,1.9166622 0.485997,0.8641301 1.178288,1.1748191 1.663886,1.2989029 0.391549,0.1000315 0.633464,-0.063417 0.0718,-0.280812 -0.703968,-0.2724695 -1.998254,-1.1826237 -1.668015,-2.969103 0.0015,-0.00763 0.02135,-0.1053985 0.03305,-0.1608389 0,0 -0.04134,0.089992 -0.120315,0.1414738 z"
         id="path89"
         style="display:inline;stroke-width:0.277347" />
    </g>
    <g
       id="g40976"
       transform="matrix(0.01259322,0.0469985,-0.0469985,0.01259322,10.678973,-5.4965528)">
      <path
         style="fill:#0073bd;fill-opacity:1;stroke-width:0.142515"
         d="M 107.34094,256.50784 C 97.367392,254.93907 89.706765,251.52428 81.73905,245.09559 64.318548,231.04 59.02548,205.97384 69.120362,185.3378 c 3.548229,-7.25331 9.674231,-14.41042 15.943557,-18.62711 5.037423,-3.38812 44.029161,-26.06202 49.880411,-29.00571 7.36408,-3.70479 13.07778,-4.96958 22.49072,-4.9786 7.55921,-0.007 11.19759,0.68564 18.60909,3.54382 9.12294,3.51818 21.06886,14.15416 24.57375,21.8791 1.23101,2.71321 1.23029,7.46844 -10e-4,10.01302 -1.35674,2.80264 -4.76177,5.77181 -7.5783,6.60823 -2.91188,0.86473 -4.14682,0.8776 -6.82654,0.0711 -2.86325,-0.86166 -4.81259,-2.4554 -7.59293,-6.20768 -3.55248,-4.79432 -6.36587,-7.17796 -11.27114,-9.54946 l -4.33302,-2.09484 -5.79597,0.0341 c -4.71607,0.0277 -6.26515,0.2072 -8.31414,0.9634 -2.42901,0.89645 -19.26121,10.3981 -39.92441,22.53704 -5.46218,3.20885 -11.001959,6.78859 -12.310619,7.95498 -2.916877,2.59977 -5.246052,6.03658 -6.795466,10.02704 -1.034456,2.6642 -1.175725,3.67476 -1.20035,8.58659 -0.02377,4.74112 0.125455,5.99647 1.005862,8.46185 2.859252,8.0067 9.67053,14.18459 17.997733,16.32412 2.0472,0.52599 3.93699,0.64912 7.22583,0.47082 6.43288,-0.34875 6.35189,-0.31468 22.49073,-9.46275 5.26639,-2.98518 10.39793,-5.84537 11.40343,-6.35598 5.90915,-3.0008 13.05331,-0.58962 15.94549,5.38165 1.59336,3.2897 1.84001,5.50244 0.95333,8.55253 -1.38975,4.78054 -3.78736,6.56033 -24.07008,17.86759 -7.56981,4.22004 -11.05578,5.71712 -16.56869,7.11558 -4.81496,1.22142 -13.41692,1.73591 -17.71636,1.05964 z"
         id="path40736"
         transform="translate(4.7157e-6)" />
      <path
         style="fill:#0073bd;fill-opacity:1;stroke-width:0.142515"
         d="m 180.74002,212.22258 c -13.04255,-2.36638 -25.41328,-10.51453 -32.70297,-21.54026 -3.08037,-4.65909 -3.78511,-8.0507 -2.53786,-12.21365 0.59531,-1.98696 4.23809,-6.24072 6.22365,-7.26749 1.83112,-0.94692 6.4405,-1.27841 8.82974,-0.63502 2.2001,0.59246 5.63084,3.78831 9.35258,8.71224 2.4958,3.302 7.6576,6.81342 12.13809,8.25719 4.329,1.39495 11.35006,1.39885 15.02892,0.008 3.07159,-1.16098 10.50444,-5.212 25.48421,-13.8893 27.18905,-15.74972 28.30239,-16.51101 31.4431,-21.50025 2.70825,-4.30226 3.69986,-7.44335 3.95676,-12.53377 0.39372,-7.80161 -1.61301,-13.39272 -6.76823,-18.85752 -3.05679,-3.24034 -6.1214,-5.14682 -10.79045,-6.71265 -3.14027,-1.05314 -10.58391,-1.29064 -13.7089,-0.43742 -2.42132,0.66111 -8.28177,3.64958 -17.35517,8.85007 -12.27971,7.03821 -13.50661,7.58228 -17.09831,7.58228 -4.22176,0 -7.20123,-1.53801 -9.52851,-4.91865 -2.34753,-3.41003 -2.93639,-6.47829 -1.9194,-10.00093 1.21058,-4.19318 3.88818,-6.45268 15.70225,-13.25041 13.50013,-7.767882 15.78728,-8.953365 20.34724,-10.546449 17.89042,-6.250269 38.31644,-1.384544 51.54332,12.278239 6.53796,6.75342 11.37677,15.91487 13.37584,25.3248 0.32763,1.54221 0.56428,5.68539 0.55962,9.79794 -0.007,6.30932 -0.14487,7.63605 -1.20209,11.57938 -2.43771,9.09239 -8.07982,18.45524 -14.83587,24.61955 -4.15807,3.79388 -7.42294,5.8343 -30.26812,18.91649 -28.09721,16.08975 -29.91293,16.9683 -37.99357,18.38347 -4.50988,0.78982 -12.90512,0.78681 -17.27587,-0.006 z"
         id="path40775"
         transform="translate(4.7157e-6)" />
    </g>
  </g>
</svg>
